<?xml version="1.0" encoding="iso-8859-1"?>
<!-- Uploaded to: SVG Repo, www.svgrepo.com, Generator: SVG Repo Mixer Tools -->
<svg height="800px" width="800px" version="1.1" id="Layer_1" xmlns="http://www.w3.org/2000/svg" xmlns:xlink="http://www.w3.org/1999/xlink" 
	 viewBox="0 0 512 512" xml:space="preserve">
<circle style="fill:#E6F3FF;" cx="256" cy="256" r="256"/>
<path style="fill:#CFDBE6;" d="M511.688,268.616L377.106,134.753L247.917,268.498L133.637,375.992l135.666,135.666
	C400.327,504.951,505.325,399.731,511.688,268.616z"/>
<path style="fill:#FFD15D;" d="M360.872,384H151.13c-12.774,0-23.128-10.356-23.128-23.13V151.13
	c0-12.774,10.355-23.128,23.128-23.128h209.742c12.774,0,23.13,10.355,23.13,23.128v209.742
	C384.002,373.644,373.646,384,360.872,384z"/>
<path style="fill:#F9B54C;" d="M360.872,128H255.426v256h105.446c12.774,0,23.13-10.356,23.13-23.13V151.13
	C384.002,138.355,373.646,128,360.872,128z"/>
<path style="fill:#2C9984;" d="M207.825,154.85l8.511,17.244c1.136,2.3,3.331,3.894,5.868,4.263l19.03,2.765
	c6.392,0.929,8.945,8.785,4.32,13.295l-13.771,13.422c-1.838,1.791-2.676,4.37-2.241,6.899l3.251,18.953
	c1.091,6.366-5.591,11.223-11.309,8.216l-17.02-8.949c-2.27-1.193-4.984-1.193-7.254,0l-17.02,8.949
	c-5.718,3.007-12.402-1.85-11.309-8.216l3.251-18.953c0.434-2.529-0.405-5.108-2.241-6.899l-13.771-13.422
	c-4.625-4.51-2.074-12.366,4.32-13.295l19.03-2.765c2.539-0.369,4.734-1.964,5.868-4.263l8.511-17.244
	C196.706,149.057,204.965,149.057,207.825,154.85z"/>
<path style="fill:#F1543F;" d="M266.216,223.311l34.747-60.182c4.536-7.854,15.872-7.854,20.406,0l34.747,60.182
	c4.536,7.854-1.134,17.672-10.204,17.672H276.42C267.35,240.985,261.682,231.165,266.216,223.311z"/>
<path style="fill:#324A5E;" d="M228.562,353.832h-62.348c-6.347,0-11.492-5.146-11.492-11.493V279.99
	c0-6.347,5.146-11.493,11.492-11.493h62.348c6.347,0,11.493,5.146,11.493,11.493v62.348
	C240.056,348.686,234.91,353.832,228.562,353.832z"/>
<circle style="fill:#F4E3C3;" cx="312.889" cy="311.165" r="42.667"/>
</svg>