<?xml version="1.0" encoding="iso-8859-1"?>
<!-- Uploaded to: SVG Repo, www.svgrepo.com, Generator: SVG Repo Mixer Tools -->
<svg version="1.1" id="Layer_1" xmlns="http://www.w3.org/2000/svg" xmlns:xlink="http://www.w3.org/1999/xlink" 
	 viewBox="0 0 512 512" xml:space="preserve">
<path style="fill:#A72B1A;" d="M511.105,277.367C511.687,270.32,512,263.197,512,256C512,114.615,397.384,0,256,0S0,114.615,0,256
	c0,119.42,81.77,219.737,192.373,248.026L511.105,277.367z"/>
<path style="fill:#701C12;" d="M511.105,277.367l-77.018-77.018l-192-13.913l-97.391-97.391l-44.522,322.783l92.199,92.199
	C212.717,509.23,234.034,512,256,512C390.187,512,500.246,408.753,511.105,277.367z"/>
<polygon style="fill:#FEF2CC;" points="250.435,135.503 278.261,411.827 411.826,411.827 411.826,200.349 "/>
<polygon style="fill:#FFFFFF;" points="122.435,200.349 144.696,411.827 278.261,411.827 278.261,166.958 "/>
<polygon style="fill:#FDE59A;" points="200.348,311.653 211.478,356.175 256,356.175 256,333.914 "/>
<polygon style="fill:#FEF2CC;" points="211.478,311.653 166.957,333.914 166.957,356.175 211.478,356.175 "/>
<polygon style="fill:#616F6D;" points="333.913,389.564 345.043,434.086 389.565,434.086 389.565,411.825 "/>
<polygon style="fill:#889391;" points="345.043,389.564 300.522,411.825 300.522,434.086 345.043,434.086 "/>
<polygon style="fill:#7DDCD4;" points="211.478,244.871 198.117,289.392 211.478,333.914 256,333.914 256,244.871 "/>
<rect x="166.957" y="244.87" style="fill:#B1EAE5;" width="44.522" height="89.043"/>
<polygon style="fill:#FDE59A;" points="434.087,200.349 434.087,222.61 278.261,222.61 256,178.088 "/>
<rect x="122.435" y="178.087" style="fill:#FEF2CC;" width="155.826" height="44.522"/>
<polygon style="fill:#F63341;" points="434.087,200.349 278.261,200.349 256,166.958 278.261,133.566 367.304,133.566 "/>
<rect x="122.435" y="133.565" style="fill:#F85C67;" width="155.826" height="66.783"/>
<polygon style="fill:#F63341;" points="345.043,267.129 331.682,328.348 345.043,411.827 389.565,411.827 389.565,267.129 "/>
<rect x="300.522" y="267.13" style="fill:#F85C67;" width="44.522" height="144.696"/>
<polygon style="fill:#02C8A7;" points="345.043,289.39 338.363,317.217 345.043,333.914 367.304,333.914 367.304,289.39 "/>
<rect x="322.783" y="289.391" style="fill:#7DDCD4;" width="22.261" height="44.522"/>
<polygon style="fill:#889391;" points="144.696,333.914 144.696,411.827 100.174,411.827 100.174,333.914 122.435,311.653 "/>
<rect x="100.174" y="89.043" style="fill:#B0B7B6;" width="44.522" height="244.87"/>
</svg>