<?xml version="1.0" encoding="iso-8859-1"?>
<!-- Uploaded to: SVG Repo, www.svgrepo.com, Generator: SVG Repo Mixer Tools -->
<svg version="1.1" id="Layer_1" xmlns="http://www.w3.org/2000/svg" xmlns:xlink="http://www.w3.org/1999/xlink" 
	 viewBox="0 0 512 512" xml:space="preserve">
<circle style="fill:#334D5C;" cx="256" cy="256" r="256"/>
<path style="opacity:0.1;enable-background:new    ;" d="M511.76,265.403L391.312,144.907H272.805
	c-6.667,0-12.373,4.213-14.507,10.187l-5.227-5.227c-2.827-3.04-6.88-4.96-11.36-4.96H123.205v17.173h-7.413
	c-3.573,0-6.453,2.88-6.453,6.453V348.32c0,1.653,0.693,3.147,1.707,4.32l0.107,0.16c0.053,0.053,0.107,0.053,0.16,0.107
	L270.005,511.6C401.765,504.496,506.976,397.765,511.76,265.403z"/>
<path style="fill:#FCD462;" d="M396.224,162.08H115.776c-3.557,0-6.443,2.885-6.443,6.443v179.792c0,3.557,2.885,6.443,6.443,6.443
	h124.016c2.016,7.088,8.469,12.315,16.208,12.315c7.739,0,14.187-5.227,16.208-12.315h124.016c3.557,0,6.443-2.885,6.443-6.443
	V168.523C402.667,164.965,399.781,162.08,396.224,162.08z"/>
<path style="fill:#D5D6DB;" d="M272.795,144.928c-8.581,0-15.536,6.955-15.536,15.531v189.509h0.224
	c1.083-7.52,7.493-13.312,15.312-13.312h118.496V144.928H272.795z"/>
<g>
	<path style="fill:#EBF0F3;" d="M241.728,144.928c8.581,0,15.536,6.955,15.536,15.531v189.509h-0.224
		c-1.083-7.52-7.493-13.312-15.312-13.312H123.227V144.928H241.728z"/>
	<path style="fill:#EBF0F3;" d="M272.795,144.928c-8.581,0-15.536,6.955-15.536,15.531v189.509h0.224
		c1.083-7.52,7.493-13.312,15.312-13.312h107.829V144.928H272.795z"/>
</g>
<path style="fill:#FFFFFF;" d="M241.728,144.928c8.581,0,15.536,6.955,15.536,15.531v189.509h-0.224
	c-1.083-7.52-7.493-13.312-15.312-13.312H133.893V144.928H241.728z"/>
<g>
	<rect x="146.187" y="171.893" style="fill:#EBF0F3;" width="98.779" height="5.205"/>
	<rect x="146.187" y="197.493" style="fill:#EBF0F3;" width="98.779" height="5.205"/>
	<rect x="146.187" y="223.104" style="fill:#EBF0F3;" width="98.779" height="5.205"/>
	<rect x="146.187" y="248.699" style="fill:#EBF0F3;" width="98.779" height="5.205"/>
	<rect x="146.187" y="274.293" style="fill:#EBF0F3;" width="98.779" height="5.205"/>
	<rect x="146.187" y="299.893" style="fill:#EBF0F3;" width="98.779" height="5.205"/>
</g>
<g>
	<rect x="269.547" y="171.893" style="fill:#D5D6DB;" width="98.779" height="5.205"/>
	<rect x="269.547" y="197.493" style="fill:#D5D6DB;" width="98.779" height="5.205"/>
	<rect x="269.547" y="223.104" style="fill:#D5D6DB;" width="98.779" height="5.205"/>
	<rect x="269.547" y="248.699" style="fill:#D5D6DB;" width="98.779" height="5.205"/>
	<rect x="269.547" y="274.293" style="fill:#D5D6DB;" width="98.779" height="5.205"/>
	<rect x="269.547" y="299.893" style="fill:#D5D6DB;" width="98.779" height="5.205"/>
</g>
</svg>