<?xml version="1.0" encoding="iso-8859-1"?>
<!-- Uploaded to: SVG Repo, www.svgrepo.com, Generator: SVG Repo Mixer Tools -->
<svg version="1.1" id="Layer_1" xmlns="http://www.w3.org/2000/svg" xmlns:xlink="http://www.w3.org/1999/xlink" 
	 viewBox="0 0 512 512" xml:space="preserve">
<circle style="fill:#CCF8F3;" cx="256" cy="256" r="256"/>
<path style="fill:#1FDBE2;" d="M280.762,510.804c117.975-11.324,212.547-102.712,228.761-219.191L336.51,118.6L162.335,250.254
	l4.468,20.887l37.755,37.755l-5.46,2.501l17.83,17.83l-2.589,114.869L280.762,510.804z"/>
<g>
	<rect x="214.333" y="304.028" style="fill:#324A5E;" width="5.172" height="140.067"/>
	<rect x="289.047" y="281.531" style="fill:#324A5E;" width="5.172" height="162.564"/>
</g>
<polygon style="fill:#FFE98F;" points="199.097,311.396 216.924,279.397 234.751,311.396 "/>
<g>
	<polygon style="fill:#FFDA44;" points="216.924,279.397 216.35,280.428 216.35,311.396 234.751,311.396 	"/>
	<ellipse style="fill:#FFDA44;" cx="216.919" cy="204.007" rx="74.697" ry="90.54"/>
</g>
<path style="fill:#FF9811;" d="M216.924,113.45c-0.193,0-0.381,0.016-0.574,0.017v181.062c0.193,0.002,0.381,0.017,0.574,0.017
	c41.257,0,74.702-40.539,74.702-90.548C291.628,153.991,258.182,113.45,216.924,113.45z"/>
<polygon style="fill:#C11D68;" points="273.801,298.38 291.628,266.381 309.455,298.379 "/>
<polygon style="fill:#9B2F46;" points="291.628,266.381 291.054,267.412 291.054,298.38 309.455,298.379 "/>
<ellipse style="fill:#EA348B;" cx="291.633" cy="190.974" rx="74.697" ry="90.54"/>
<path style="fill:#C11D68;" d="M291.628,100.435c-0.193,0-0.381,0.016-0.574,0.017v181.062c0.193,0.002,0.381,0.017,0.574,0.017
	c41.257,0,74.702-40.539,74.702-90.548S332.884,100.435,291.628,100.435z"/>
</svg>