<?xml version="1.0" encoding="iso-8859-1"?>
<!-- Uploaded to: SVG Repo, www.svgrepo.com, Generator: SVG Repo Mixer Tools -->
<svg height="800px" width="800px" version="1.1" id="Layer_1" xmlns="http://www.w3.org/2000/svg" xmlns:xlink="http://www.w3.org/1999/xlink" 
	 viewBox="0 0 512 512" xml:space="preserve">
<circle style="fill:#FFC61B;" cx="256" cy="256" r="256"/>
<path style="fill:#EAA22F;" d="M257.386,511.983c113.505-0.603,209.515-75.067,242.433-177.785L289.394,123.773L268.471,243.76
	l-59.866,6.668l49.986,49.986l-3.796,24.292l-72.582,0.736l45.271,45.056l-73.195,38.388L257.386,511.983z"/>
<path style="fill:#59595B;" d="M346.152,383.459c-42.117-69.348-67.615-203.421-67.615-203.421H233.46
	c0,0-25.498,134.073-67.615,203.421H346.152z"/>
<path style="fill:#272525;" d="M278.538,180.038h-23.112v203.421h90.726C304.037,314.109,278.538,180.038,278.538,180.038z"/>
<g>
	<circle style="fill:#808183;" cx="256" cy="154.617" r="45.461"/>
	<path style="fill:#808183;" d="M357.71,408.886H154.29v-25.171c0-14.184,11.498-25.684,25.684-25.684h152.052
		c14.184,0,25.684,11.498,25.684,25.684L357.71,408.886L357.71,408.886z"/>
	<path style="fill:#808183;" d="M298.379,252.082h-84.759c-4.68,0-8.476-3.794-8.476-8.476l0,0c0-4.68,3.794-8.476,8.476-8.476
		h84.759c4.68,0,8.476,3.794,8.476,8.476l0,0C306.855,248.287,303.061,252.082,298.379,252.082z"/>
	<path style="fill:#808183;" d="M323.806,327.98H188.192c-4.68,0-8.476-3.794-8.476-8.476l0,0c0-4.68,3.794-8.476,8.476-8.476
		h135.614c4.68,0,8.476,3.794,8.476,8.476l0,0C332.283,324.186,328.488,327.98,323.806,327.98z"/>
</g>
<g>
	<path style="fill:#59595B;" d="M256,109.147c-0.193,0-0.383,0.012-0.574,0.014v90.895c0.191,0.002,0.381,0.016,0.574,0.016
		c25.107,0,45.461-20.354,45.461-45.461S281.107,109.147,256,109.147z"/>
	<path style="fill:#59595B;" d="M357.71,383.714c0-14.186-11.498-25.684-25.684-25.684h-76.6v50.855H357.71V383.714z"/>
	<path style="fill:#59595B;" d="M298.379,235.13h-42.953v16.951h42.953c4.68,0,8.476-3.794,8.476-8.476
		C306.855,238.923,303.061,235.13,298.379,235.13z"/>
	<path style="fill:#59595B;" d="M323.806,311.027h-68.38v16.951h68.38c4.68,0,8.476-3.794,8.476-8.476
		C332.283,314.823,328.488,311.027,323.806,311.027z"/>
</g>
</svg>